HIERARCHY
ROOT RootJoint
{
    OFFSET   0.000000   0.000000   0.000000
    CHANNELS 6 Xposition Yposition Zposition Xrotation Yrotation Zrotation
    JOINT pelvis_lowerback
    {
        OFFSET   0.000000   0.093605   0.000000
        CHANNELS 3 Xrotation Yrotation Zrotation
        JOINT lowerback_torso
        {
            OFFSET   0.000000   0.100000   0.000000
            CHANNELS 3 Xrotation Yrotation Zrotation
            JOINT torso_head
            {
                OFFSET   0.000000   0.282350   0.000000
                CHANNELS 3 Xrotation Yrotation Zrotation
                End Site
                {
                    OFFSET   0.000000   0.192650   0.000000
                }
            }
            JOINT rTorso_Clavicle
            {
                OFFSET  -0.001000   0.157500   0.000000
                CHANNELS 3 Xrotation Yrotation Zrotation
                JOINT rShoulder
                {
                    OFFSET  -0.117647   0.000000   0.000000
                    CHANNELS 3 Xrotation Yrotation Zrotation
                    JOINT rElbow
                    {
                        OFFSET  -0.245000   0.000000   0.000000
                        CHANNELS 3 Xrotation Yrotation Zrotation
                        JOINT rWrist
                        {
                            OFFSET  -0.240000   0.000000   0.000000
                            CHANNELS 3 Xrotation Yrotation Zrotation
                            End Site
                            {
                                OFFSET  -0.116353  -0.002500   0.000000
                            }
                        }
                    }
                }
            }
            JOINT lTorso_Clavicle
            {
                OFFSET   0.001000   0.157500   0.000000
                CHANNELS 3 Xrotation Yrotation Zrotation
                JOINT lShoulder
                {
                    OFFSET   0.117647   0.000000   0.000000
                    CHANNELS 3 Xrotation Yrotation Zrotation
                    JOINT lElbow
                    {
                        OFFSET   0.245000   0.000000   0.000000
                        CHANNELS 3 Xrotation Yrotation Zrotation
                        JOINT lWrist
                        {
                            OFFSET   0.240000   0.000000   0.000000
                            CHANNELS 3 Xrotation Yrotation Zrotation
                            End Site
                            {
                                OFFSET   0.116353  -0.002500   0.000000
                            }
                        }
                    }
                }
            }
        }
    }
    JOINT rHip
    {
        OFFSET  -0.100000  -0.051395   0.000000
        CHANNELS 3 Xrotation Yrotation Zrotation
        JOINT rKnee
        {
            OFFSET   0.000000  -0.410000   0.000000
            CHANNELS 3 Xrotation Yrotation Zrotation
            JOINT rAnkle
            {
                OFFSET   0.000000  -0.390000   0.000000
                CHANNELS 3 Xrotation Yrotation Zrotation
                JOINT rToeJoint
                {
                    OFFSET   0.000000  -0.050000   0.130000
                    CHANNELS 3 Xrotation Yrotation Zrotation
                    End Site
                    {
                        OFFSET  -0.010000   0.002000   0.060000
                    }
                }
            }
        }
    }
    JOINT lHip
    {
        OFFSET   0.100000  -0.051395   0.000000
        CHANNELS 3 Xrotation Yrotation Zrotation
        JOINT lKnee
        {
            OFFSET   0.000000  -0.410000   0.000000
            CHANNELS 3 Xrotation Yrotation Zrotation
            JOINT lAnkle
            {
                OFFSET   0.000000  -0.390000   0.000000
                CHANNELS 3 Xrotation Yrotation Zrotation
                JOINT lToeJoint
                {
                    OFFSET   0.000000  -0.050000   0.130000
                    CHANNELS 3 Xrotation Yrotation Zrotation
                    End Site
                    {
                        OFFSET   0.010000   0.002000   0.060000
                    }
                }
            }
        }
    }
}
MOTION
Frames: 8
Frame Time:   0.008333
 -1.116065   0.888426   3.666677 -31.838654  23.897332 -17.118207  34.505411   3.014742   9.314095  15.239376  -1.472524   3.470879   2.597043  -6.077363   5.043290   0.785485   3.704709   8.532704   7.962998   0.343070  35.713568   0.000764  27.282637   0.000087   2.606253   5.842063  -9.499232   4.112407 -11.037163  -6.916386   0.109616 -12.009539 -31.481615  -0.053473 -35.433417  -0.036630  -1.525522  -5.557263  13.369069 -62.460788  -4.472314 -20.291781  23.344460   0.002729  -0.014200   1.863997  -5.883833  13.530731   0.158969  -0.000115   0.001069   6.217031   1.314595  29.004408  47.255563  -0.002368  -0.011662 -23.538274  -7.283117   1.814699  -1.421745   0.000033  -0.001529
 -1.114312   0.886090   3.666517 -31.842693  23.040670 -16.995995  34.493508   2.973572   9.140690  15.284630  -1.476039   3.199092   2.533566  -6.210037   4.977662   0.635747   3.715087   8.611718   8.119104   0.573529  35.708923   0.001618  27.586971   0.000415   2.664905   5.845464  -9.568207   4.261870 -10.761094  -7.371461   0.668306 -11.644618 -32.077408  -0.053985 -34.476321  -0.035552  -1.521750  -5.696706  13.308762 -62.611970  -4.920295 -20.110032  24.204922   0.002800  -0.018815   1.779929  -6.164715  13.490280   0.134808  -0.000144   0.001171   6.015923   1.976963  28.491789  47.678640  -0.001601  -0.010496 -24.078370  -6.373381   1.779046  -1.114997   0.000612   0.000564
 -1.112669   0.884396   3.666321 -31.757672  22.233498 -16.946999  34.426864   2.903331   9.003441  15.294276  -1.476201   2.948747   2.461689  -6.343201   4.919358   0.510191   3.698063   8.713870   8.275504   0.784976  35.739207   0.002347  27.879770   0.000742   2.729389   5.924538  -9.570397   4.461879 -10.443602  -7.844492   1.235062 -11.261982 -32.682485  -0.054121 -33.554907  -0.034231  -1.554561  -5.696924  13.179613 -62.706212  -5.371513 -19.935350  25.095962   0.002845  -0.021988   1.706819  -6.429010  13.451960   0.121431  -0.000148   0.001102   5.802643   2.619494  28.036786  47.925299  -0.001098  -0.009040 -24.502738  -5.478999   1.816253  -0.841769   0.000855   0.002045
 -1.111028   0.883220   3.666081 -31.632667  21.327436 -16.950762  34.309192   2.879012   8.857680  15.287662  -1.440296   2.683689   2.387397  -6.468024   4.861869   0.402648   3.669500   8.819850   8.428777   0.976778  35.779299   0.002878  28.151731   0.001032   2.792447   6.011258  -9.539336   4.691047 -10.103103  -8.320771   1.795629 -10.879204 -33.280416  -0.053480 -32.680292  -0.032805  -1.607737  -5.609875  12.993641 -62.761401  -5.813239 -19.666639  25.949158   0.002896  -0.024041   1.641177  -6.673850  13.416532   0.124341  -0.000113   0.000846   5.671227   3.018141  27.542605  48.126560  -0.001124  -0.008267 -24.687577  -4.886493   1.946532  -0.836848   0.000684   0.001636
 -1.109404   0.882365   3.665796 -31.455678  20.420305 -17.003704  34.157982   2.858358   8.738676  15.260299  -1.393135   2.431972   2.313142  -6.585213   4.808037   0.312223   3.628203   8.912161   8.579233   1.147134  35.818356   0.003198  28.403385   0.001266   2.851575   6.089981  -9.494694   4.931701  -9.757021  -8.779198   2.339208 -10.508886 -33.858977  -0.051878 -31.857147  -0.031253  -1.669300  -5.481060  12.771627 -62.774818  -6.244477 -19.404877  26.765927   0.003153  -0.025049   1.580506  -6.901998  13.383362   0.128107  -0.000081   0.000633   5.528095   3.410213  27.078766  48.231511  -0.001036  -0.007162 -24.819874  -4.283468   2.074108  -0.832593   0.000548   0.001309
 -1.107820   0.881750   3.665455 -31.240156  19.531495 -17.087474  33.991764   2.838183   8.637622  15.218519  -1.342699   2.199176   2.240223  -6.694972   4.758851   0.234855   3.578870   8.991011   8.724827   1.298790  35.852970   0.003351  28.635936   0.001427   2.906194   6.155757  -9.450577   5.170514  -9.417041  -9.208753   2.858399 -10.156709 -34.406599  -0.049453 -31.085162  -0.029608  -1.733324  -5.334100  12.540629 -62.748414  -6.658618 -19.170584  27.543936   0.003565  -0.025268   1.524565  -7.114855  13.351906   0.133868  -0.000048   0.000443   5.364831   3.791573  26.644692  48.269339  -0.000876  -0.005924 -24.912758  -3.691939   2.208956  -0.826713   0.000438   0.001047
 -1.106288   0.881316   3.665058 -30.997658  18.662680 -17.192323  33.819455   2.819323   8.549483  15.167648  -1.291419   1.983924   2.170245  -6.797507   4.713272   0.167584   3.525125   9.056928   8.864301   1.434687  35.882050   0.003380  28.851126   0.001522   2.956841   6.209626  -9.411732   5.401078  -9.088610  -9.605367   3.350139  -9.824837 -34.919085  -0.046429 -30.362828  -0.027919  -1.796685  -5.182224  12.316816 -62.688838  -7.054047 -18.964788  28.282886   0.004061  -0.024942   1.472910  -7.313503  13.322013   0.141174  -0.000013   0.000277   5.183013   4.162151  26.238641  48.258339  -0.000686  -0.004684 -24.974708  -3.116237   2.346827  -0.819942   0.000350   0.000837
 -1.104583   0.880987   3.664962 -30.746026  17.674277 -17.238497  33.508229   2.761427   8.365953  15.133098  -1.250216   1.743846   2.137439  -6.871715   4.678005   0.052285   3.367041   9.070861   9.054430   1.586307  36.050980   0.003967  29.236851   0.002631   3.010752   6.205249  -9.344775   5.495302  -8.624991 -10.000236   3.795629  -9.364803 -35.661108  -0.044960 -29.491510  -0.024740  -1.870442  -5.181572  12.121554 -62.675930  -7.290060 -18.727620  29.365876   0.005462  -0.026729   1.317142  -7.564210  13.216865   0.094829  -0.000239   0.000742   5.058577   4.623015  25.699509  48.154670  -0.000420  -0.003157 -25.035823  -2.324208   2.514611  -0.813965   0.000279   0.000677
